<svg xmlns="http://www.w3.org/2000/svg" fill="none" viewBox="0 0 500 500"><path fill="#121212" d="M290 94h-80v50c0 13.255-10.745 24-24 24h-32c-13.255 0-24 10.745-24 24v70c0 13.255-10.745 24-24 24H74c-13.255 0-24 10.745-24 24v96h80v-94c0-13.255 10.745-24 24-24h32c13.255 0 24-10.745 24-24v-66c0-13.255 10.745-24 24-24h32c13.255 0 24 10.745 24 24v66c0 13.255 10.745 24 24 24h32c13.255 0 24 10.745 24 24v94h80v-96c0-13.255-10.745-24-24-24h-32c-13.255 0-24-10.745-24-24v-70c0-13.255-10.745-24-24-24h-32c-13.255 0-24-10.745-24-24V94Z"/><path fill="#121212" d="M234 286c-13.255 0-24 10.745-24 24v96h80v-96c0-13.255-10.745-24-24-24h-32Z"/></svg>